<?xml version="1.0" encoding="UTF-8"?>
<svg version="1.1" xmlns="http://www.w3.org/2000/svg" width="400" height="400">
<path d="M0 0 C132 0 264 0 400 0 C400 132 400 264 400 400 C268 400 136 400 0 400 C0 268 0 136 0 0 Z " fill="#000000" transform="translate(0,0)"/>
<path d="M0 0 C0.78284866 -0.00570007 1.56569733 -0.01140015 2.37226868 -0.01727295 C4.03926237 -0.02673775 5.70627489 -0.03326278 7.37329102 -0.03710938 C9.87096423 -0.04666527 12.36775982 -0.07760746 14.86523438 -0.109375 C31.76034096 -0.22351263 49.20256781 1.54900668 62.30078125 13.515625 C72.46614372 25.01583304 72.97509864 39.36130378 72.38623047 53.92773438 C71.64366195 65.34809504 67.82571509 75.23083861 59.36328125 83.078125 C46.21849677 93.5693829 29.24847494 94.89065547 12.99511719 94.72460938 C10.44763969 94.70277669 7.90287202 94.72474934 5.35546875 94.75 C3.71744176 94.74736247 2.07941644 94.74224945 0.44140625 94.734375 C-0.31066101 94.74247192 -1.06272827 94.75056885 -1.83758545 94.75891113 C-6.75663734 94.67100321 -9.31504679 93.7204053 -12.76171875 90.203125 C-14.29808285 87.1303968 -13.92665586 83.90094419 -13.9387207 80.52807617 C-13.9452919 79.7360228 -13.9518631 78.94396942 -13.95863342 78.12791443 C-13.97838164 75.50063996 -13.99003234 72.87342268 -14 70.24609375 C-14.00407553 69.34949854 -14.00815105 68.45290333 -14.01235008 67.52913857 C-14.03321727 62.78366958 -14.0475162 58.03822957 -14.05688477 53.29272461 C-14.06795093 48.38980329 -14.10235125 43.48733561 -14.14205647 38.5845747 C-14.1681953 34.81589409 -14.17657416 31.04732202 -14.18016624 27.27855873 C-14.18503925 25.4712448 -14.19667353 23.66393594 -14.21520424 21.85671043 C-14.23953816 19.32622663 -14.23864151 16.79692227 -14.23168945 14.26635742 C-14.24449951 13.52071533 -14.25730957 12.77507324 -14.27050781 12.00683594 C-14.22164377 7.12351415 -13.24543347 4.62520081 -9.76171875 1.203125 C-6.66840139 -0.34353368 -3.3962318 0.01919482 0 0 Z " fill="#FBFBFB" transform="translate(76.76171875,159.796875)"/>
<path d="M0 0 C1.13244141 -0.01933594 2.26488281 -0.03867188 3.43164062 -0.05859375 C11.53885628 -0.01081994 11.53885628 -0.01081994 15.59375 2.5078125 C18.32963369 6.83962835 19.98484726 11.28671377 21.625 16.125 C21.95048828 17.0428125 22.27597656 17.960625 22.61132812 18.90625 C24.36065719 23.89443585 25.96858597 28.91358227 27.5 33.97265625 C29.61458299 40.91755463 32.03070695 47.73696562 34.5 54.5625 C37.02734375 61.58984375 37.02734375 61.58984375 38.27905273 65.07226562 C39.16964027 67.53751764 40.06707789 69.99937307 40.97290039 72.45898438 C41.42528076 73.69841797 41.87766113 74.93785156 42.34375 76.21484375 C42.75560547 77.33366943 43.16746094 78.45249512 43.59179688 79.60522461 C44.89939381 83.67304816 45.26556937 86.4065838 44.5625 90.625 C43.0546875 92.80078125 43.0546875 92.80078125 40.5625 94.625 C37.58969191 95.05306075 35.08771124 95.23051118 32.125 95.1875 C30.99868164 95.22327148 30.99868164 95.22327148 29.84960938 95.25976562 C25.72027347 95.24887028 24.01408526 94.97153735 20.640625 92.3828125 C18.72025666 89.83435377 17.63116939 87.972639 16.75 84.9375 C16.51667969 84.17050781 16.28335938 83.40351563 16.04296875 82.61328125 C15.5625 80.625 15.5625 80.625 15.5625 78.625 C5.6625 78.625 -4.2375 78.625 -14.4375 78.625 C-15.0975 81.265 -15.7575 83.905 -16.4375 86.625 C-17.86742037 89.84232082 -18.95348095 92.14098095 -21.4375 94.625 C-24.37485856 95.06927647 -27.34535288 94.94910856 -30.3125 94.9375 C-31.12847656 94.95361328 -31.94445312 94.96972656 -32.78515625 94.98632812 C-36.30401134 94.98919832 -38.78618119 94.95116274 -41.96484375 93.359375 C-44.35284457 90.54698146 -44.15870947 88.48479119 -44.02734375 84.890625 C-42.9615365 78.98986432 -40.51387783 73.58799546 -38.234375 68.06640625 C-36.76747329 64.50683521 -35.5250437 60.9466946 -34.4375 57.25 C-32.07161112 49.2439119 -29.26785891 41.40314526 -26.46875 33.54052734 C-25.34047412 30.35069056 -24.23270625 27.15406589 -23.125 23.95703125 C-22.33380516 21.70035535 -21.54214469 19.44384265 -20.75 17.1875 C-20.38173096 16.11532227 -20.01346191 15.04314453 -19.6340332 13.93847656 C-15.43495617 2.07847355 -12.70018956 -0.21611213 0 0 Z " fill="#FAFAFA" transform="translate(189.4375,159.375)"/>
<path d="M0 0 C1.10347778 0.00213753 1.10347778 0.00213753 2.22924805 0.00431824 C3.06351318 0.00124161 3.89777832 -0.00183502 4.75732422 -0.00500488 C5.65942627 0.00218063 6.56152832 0.00936615 7.4909668 0.01676941 C8.87795776 0.01745674 8.87795776 0.01745674 10.29296875 0.01815796 C12.24993166 0.02118191 14.20689212 0.02907247 16.16381836 0.04142761 C19.16618336 0.05966355 22.16823975 0.06193746 25.1706543 0.06169128 C27.06909447 0.06660719 28.96753255 0.07243582 30.8659668 0.07926941 C31.76806885 0.08038223 32.6701709 0.08149506 33.59960938 0.0826416 C34.43387451 0.08902145 35.26813965 0.09540131 36.12768555 0.10197449 C36.8633374 0.10578629 37.59898926 0.10959808 38.35693359 0.11352539 C40.1784668 0.24723816 40.1784668 0.24723816 42.1784668 1.24723816 C42.1784668 6.85723816 42.1784668 12.46723816 42.1784668 18.24723816 C39.8684668 18.24723816 37.5584668 18.24723816 35.1784668 18.24723816 C35.1784668 23.19723816 35.1784668 28.14723816 35.1784668 33.24723816 C37.1584668 33.24723816 39.1384668 33.24723816 41.1784668 33.24723816 C42.92470559 34.99347695 42.31067831 37.2460214 42.31518555 39.56950378 C42.31131836 40.26753113 42.30745117 40.96555847 42.3034668 41.68473816 C42.30926758 42.72597839 42.30926758 42.72597839 42.31518555 43.78825378 C42.30510674 48.99395828 42.30510674 48.99395828 41.1784668 51.24723816 C39.1984668 51.24723816 37.2184668 51.24723816 35.1784668 51.24723816 C35.1784668 64.44723816 35.1784668 77.64723816 35.1784668 91.24723816 C32.70071584 92.48611364 30.94192972 92.41465485 28.1784668 92.43473816 C27.2915918 92.44891785 26.4047168 92.46309753 25.4909668 92.47770691 C23.1784668 92.24723816 23.1784668 92.24723816 21.1784668 90.24723816 C21.00307244 87.30627079 20.94714304 84.46070467 20.9831543 81.52067566 C20.98598419 80.6578598 20.98881409 79.79504395 20.99172974 78.90608215 C21.00294347 76.14466096 21.02804996 73.38356166 21.0534668 70.62223816 C21.06349507 68.75245117 21.07262118 66.88265911 21.08081055 65.01286316 C21.10288668 60.42419707 21.13742445 55.83577223 21.1784668 51.24723816 C19.8584668 51.24723816 18.5384668 51.24723816 17.1784668 51.24723816 C17.20166992 51.8646991 17.22487305 52.48216003 17.2487793 53.11833191 C17.37728818 59.1490703 16.80104125 64.44499406 15.1784668 70.24723816 C14.99541992 70.96524597 14.81237305 71.68325378 14.6237793 72.42301941 C12.5091505 79.77200715 8.6417242 87.93839989 2.1784668 92.24723816 C-0.5090332 92.37223816 -0.5090332 92.37223816 -2.8215332 92.24723816 C-5.25785848 87.37458761 -4.31525904 80.57625724 -3.8215332 75.24723816 C-2.7948817 72.57717809 -1.53153553 70.32705084 -0.06762695 67.87614441 C2.38368532 62.7045671 2.63377386 56.88928138 3.1784668 51.24723816 C1.1984668 51.24723816 -0.7815332 51.24723816 -2.8215332 51.24723816 C-3.99948173 47.71339257 -3.95417637 44.84446263 -3.9465332 41.12223816 C-3.95040039 39.23118347 -3.95040039 39.23118347 -3.9543457 37.30192566 C-3.8215332 34.24723816 -3.8215332 34.24723816 -2.8215332 33.24723816 C-0.8415332 33.24723816 1.1384668 33.24723816 3.1784668 33.24723816 C3.1784668 28.29723816 3.1784668 23.34723816 3.1784668 18.24723816 C1.1984668 18.24723816 -0.7815332 18.24723816 -2.8215332 18.24723816 C-4.30674045 15.27682367 -3.9921154 12.54959369 -4.0090332 9.24723816 C-4.02321289 7.98911316 -4.03739258 6.73098816 -4.05200195 5.43473816 C-3.81096924 2.10113318 -3.55979215 0.48317344 0 0 Z " fill="#F9F9F9" transform="translate(287.821533203125,159.7527618408203)"/>
<path d="M0 0 C0.7027002 -0.00191345 1.40540039 -0.0038269 2.12939453 -0.00579834 C3.61556354 -0.00715975 5.10174445 -0.00346632 6.58789062 0.00488281 C8.86615646 0.01558346 11.14363377 0.00498661 13.421875 -0.0078125 C14.86458508 -0.0064909 16.30729466 -0.00392849 17.75 0 C19.06742187 0.00225586 20.38484375 0.00451172 21.7421875 0.00683594 C24.875 0.265625 24.875 0.265625 26.875 2.265625 C27.10003811 4.81410856 27.19940357 7.21826169 27.1875 9.765625 C27.20361328 10.45527344 27.21972656 11.14492187 27.23632812 11.85546875 C27.23828125 13.859375 27.23828125 13.859375 26.875 17.265625 C23.67093538 19.40166808 22.87899253 19.50771408 19.20703125 19.4609375 C18.31435547 19.45449219 17.42167969 19.44804687 16.50195312 19.44140625 C15.57318359 19.42464844 14.64441406 19.40789062 13.6875 19.390625 C12.74712891 19.38160156 11.80675781 19.37257812 10.83789062 19.36328125 C8.51681843 19.33971707 6.19587711 19.30384621 3.875 19.265625 C3.875 23.885625 3.875 28.505625 3.875 33.265625 C5.13957031 33.24242187 6.40414063 33.21921875 7.70703125 33.1953125 C9.3671816 33.17655374 11.02733833 33.15835365 12.6875 33.140625 C13.52087891 33.12386719 14.35425781 33.10710937 15.21289062 33.08984375 C16.01533203 33.08339844 16.81777344 33.07695312 17.64453125 33.0703125 C18.38292236 33.05983887 19.12131348 33.04936523 19.88208008 33.03857422 C21.875 33.265625 21.875 33.265625 24.875 35.265625 C25.2492218 37.53599548 25.2492218 37.53599548 25.24731445 40.40209961 C25.25665764 42.00902931 25.25665764 42.00902931 25.26618958 43.64842224 C25.25697983 44.80987259 25.24777008 45.97132294 25.23828125 47.16796875 C25.23902901 48.95093102 25.23902901 48.95093102 25.23979187 50.76991272 C25.2374478 53.2876248 25.22769982 55.80533906 25.21118164 58.32299805 C25.1876189 62.18364363 25.19061477 66.04359783 25.19726562 69.90429688 C25.1916882 72.3463583 25.18457792 74.7884168 25.17578125 77.23046875 C25.17714836 78.96960793 25.17714836 78.96960793 25.17854309 80.74388123 C25.16901108 81.81831985 25.15947906 82.89275848 25.1496582 83.99975586 C25.14505081 84.94636581 25.14044342 85.89297577 25.13569641 86.86827087 C24.875 89.265625 24.875 89.265625 22.875 92.265625 C20.01757812 92.63793945 20.01757812 92.63793945 16.40625 92.62890625 C15.11332031 92.62826172 13.82039063 92.62761719 12.48828125 92.62695312 C11.81361816 92.61865479 11.13895508 92.61035645 10.44384766 92.60180664 C8.38274049 92.5782136 6.3229266 92.58124474 4.26171875 92.58789062 C-5.8582276 92.5323974 -5.8582276 92.5323974 -8.125 90.265625 C-8.44384766 87.83544922 -8.44384766 87.83544922 -8.5390625 84.8203125 C-8.57773438 83.74394531 -8.61640625 82.66757813 -8.65625 81.55859375 C-8.6871875 80.43066406 -8.718125 79.30273438 -8.75 78.140625 C-8.78867188 77.00496094 -8.82734375 75.86929688 -8.8671875 74.69921875 C-8.96167601 71.88818544 -9.04723541 69.07716267 -9.125 66.265625 C-9.71796875 66.92046875 -10.3109375 67.5753125 -10.921875 68.25 C-13.125 70.265625 -13.125 70.265625 -16.375 70.515625 C-17.2825 70.433125 -18.19 70.350625 -19.125 70.265625 C-21.49650143 65.52262213 -20.8161516 59.38014681 -20.125 54.265625 C-18.65285003 51.59365307 -17.09736892 49.67609113 -14.94921875 47.5234375 C-10.47147359 41.98138889 -9.68470062 35.76075393 -9.68359375 28.8984375 C-9.67038589 28.13763885 -9.65717804 27.37684021 -9.64356995 26.59298706 C-9.60306705 24.19216052 -9.5810925 21.79171359 -9.5625 19.390625 C-9.53869913 16.96822548 -9.5106559 14.54618242 -9.47071838 12.12399292 C-9.4463787 10.62389615 -9.43150598 9.12360931 -9.42710876 7.62332153 C-9.31446494 0.16187898 -6.99342133 0.01197504 0 0 Z " fill="#FAFAFA" transform="translate(254.125,159.734375)"/>
<path d="M0 0 C2.35448675 -0.05454409 4.70767875 -0.0939279 7.0625 -0.125 C9.02896484 -0.15980469 9.02896484 -0.15980469 11.03515625 -0.1953125 C17.49822712 0.12306538 22.31145725 1.44541561 27 6 C30.60501776 11.45830154 29.61020497 18.76016209 29 25 C27.70617739 29.40687804 25.73448586 31.87484096 21.8984375 34.36328125 C15.20807613 37.53412027 8.28744686 37.67048908 1 37 C0 36 0 36 -0.11352539 32.58178711 C-0.11336628 31.06363012 -0.10767226 29.54546771 -0.09765625 28.02734375 C-0.0962413 27.22970108 -0.09482635 26.43205841 -0.09336853 25.61024475 C-0.08775316 23.05262565 -0.07519812 20.49509282 -0.0625 17.9375 C-0.05748698 16.20768355 -0.05292373 14.47786574 -0.04882812 12.74804688 C-0.03777875 8.49866447 -0.02050386 4.24934688 0 0 Z " fill="#040404" transform="translate(91,189)"/>
<path d="M0 0 C0.33 4.95 0.66 9.9 1 15 C2.98 15 4.96 15 7 15 C7 19.95 7 24.9 7 30 C5.02 30.33 3.04 30.66 1 31 C1.02320313 32.13179687 1.04640625 33.26359375 1.0703125 34.4296875 C1.08906901 35.91145175 1.10726934 37.39322312 1.125 38.875 C1.14175781 39.62136719 1.15851563 40.36773437 1.17578125 41.13671875 C1.1933959 43.09194461 1.10320189 45.04742021 1 47 C0.34 47.66 -0.32 48.32 -1 49 C-1 48.34 -1 47.68 -1 47 C-1.99 47.495 -1.99 47.495 -3 48 C-3.33 60.87 -3.66 73.74 -4 87 C-4.99 87.495 -4.99 87.495 -6 88 C-6 69.52 -6 51.04 -6 32 C-8.23647631 30.88176185 -9.64891529 30.80603939 -12.1328125 30.68359375 C-13.34130859 30.62075195 -13.34130859 30.62075195 -14.57421875 30.55664062 C-15.41597656 30.51732422 -16.25773437 30.47800781 -17.125 30.4375 C-17.97449219 30.39431641 -18.82398438 30.35113281 -19.69921875 30.30664062 C-21.79928223 30.20045764 -23.89961948 30.09971503 -26 30 C-26 25.38 -26 20.76 -26 16 C-24.57945312 15.93941406 -23.15890625 15.87882813 -21.6953125 15.81640625 C-19.83853091 15.73200709 -17.98176064 15.64735877 -16.125 15.5625 C-15.18785156 15.52318359 -14.25070312 15.48386719 -13.28515625 15.44335938 C-12.38925781 15.40146484 -11.49335938 15.35957031 -10.5703125 15.31640625 C-9.74289551 15.27974854 -8.91547852 15.24309082 -8.06298828 15.20532227 C-5.93820571 15.11761673 -5.93820571 15.11761673 -4 14 C-3.60701599 10.98566709 -3.60701599 10.98566709 -3.5 7.5 C-3.34375 3.90625 -3.34375 3.90625 -3 1 C-1 0 -1 0 0 0 Z " fill="#0A0A0A" transform="translate(284,163)"/>
<path d="M0 0 C3 1 3 1 5 3 C5.484375 6.1875 5.484375 6.1875 5.75 10 C5.84796875 11.258125 5.9459375 12.51625 6.046875 13.8125 C6 17 6 17 4 19 C4 18.34 4 17.68 4 17 C3.34 17.33 2.68 17.66 2 18 C1.67 30.87 1.34 43.74 1 57 C0.01 57.495 0.01 57.495 -1 58 C-0.67 38.86 -0.34 19.72 0 0 Z " fill="#101010" transform="translate(279,193)"/>
<path d="M0 0 C1.65 0 3.3 0 5 0 C5 7.59 5 15.18 5 23 C3.35 23 1.7 23 0 23 C0 15.41 0 7.82 0 0 Z " fill="#1F1F1F" transform="translate(260,211)"/>
<path d="M0 0 C0.66 0 1.32 0 2 0 C2.67679658 1.725227 3.34102 3.45538939 4 5.1875 C4.37125 6.15042969 4.7425 7.11335937 5.125 8.10546875 C6 11 6 11 6 16 C2.7 16 -0.6 16 -4 16 C-3.47606294 10.13190493 -2.23891142 5.45126259 0 0 Z " fill="#171717" transform="translate(189,197)"/>
<path d="M0 0 C1.32 0 2.64 0 4 0 C4 4.95 4 9.9 4 15 C2.68 15 1.36 15 0 15 C0 10.05 0 5.1 0 0 Z " fill="#202020" transform="translate(305,178)"/>
<path d="M0 0 C1.32 0 2.64 0 4 0 C4 12.54 4 25.08 4 38 C3.67 38 3.34 38 3 38 C2.505 20.675 2.505 20.675 2 3 C1.01 3.495 1.01 3.495 0 4 C0 2.68 0 1.36 0 0 Z " fill="#1E1E1E" transform="translate(305,211)"/>
<path d="M0 0 C2.50037734 2.17424117 3.43628586 3.73045798 4 7 C2.02 6.34 0.04 5.68 -2 5 C-1.34 3.35 -0.68 1.7 0 0 Z " fill="#1E1E1E" transform="translate(116,194)"/>
</svg>
